<svg xmlns="http://www.w3.org/2000/svg" width="800" height="800" viewBox="0 0 800 800">
<rect width="100%" height="100%" fill="white"/>

<!-- Parameters -->
<style>
.icon { fill:#ea580c; stroke:#ea580c; stroke-width:4; }
</style>

<!-- Row 1 -->
<circle class="icon" cx="100" cy="100" r="40"/> <!-- Simple circle -->
<rect class="icon" x="250" y="60" width="80" height="80" rx="15"/> <!-- Rounded square -->
<polygon class="icon" points="450,60 490,140 410,140"/> <!-- Triangle -->
<path class="icon" d="M600 60 L640 140 L560 140 Z M580 100 L620 100" fill="none"/> <!-- Abstract arrow -->

<!-- Row 2 -->
<path class="icon" d="M60 250 A40 40 0 1 1 140 250 A40 40 0 1 1 60 250" fill="none"/> <!-- Infinity -->
<path class="icon" d="M250 240 L330 240 L290 310 Z"/> <!-- Down arrow -->
<circle class="icon" cx="450" cy="260" r="40"/>
<line class="icon" x1="420" y1="230" x2="480" y2="290"/> <!-- People abstract -->
<rect class="icon" x="560" y="230" width="80" height="80"/> <!-- Square -->

<!-- Row 3 -->
<path class="icon" d="M60 420 L140 420 L100 490 Z"/> <!-- Up arrow -->
<circle class="icon" cx="290" cy="450" r="35"/>
<circle class="icon" cx="330" cy="450" r="35" fill="none"/> <!-- Overlapping circles -->
<path class="icon" d="M420 420 L480 420 L480 480 L420 480 Z M430 430 L470 470"/> <!-- Square + X -->
<polygon class="icon" points="560,420 640,420 600,490"/> <!-- Hex/diamond -->

<!-- Row 4 -->
<path class="icon" d="M60 600 L100 560 L140 600 L100 640 Z"/> <!-- Diamond -->
<circle class="icon" cx="290" cy="600" r="40"/>
<path class="icon" d="M420 560 L480 560 L480 640 L420 640 Z" fill="none"/> <!-- Empty square -->
<path class="icon" d="M560 560 Q600 540 640 560 Q600 620 560 560 Z"/> <!-- Abstract wave -->

</svg>