<svg width="1960" height="2035" viewBox="0 0 1960 2035" fill="none" xmlns="http://www.w3.org/2000/svg">
<path d="M1600.82 1H1959.5L1892.62 248.771C1874.95 314.216 1815.59 359.68 1747.8 359.68H1504L1600.82 1Z" fill="#FF5500"/>
<path d="M942.82 0H1301.5L1204.68 358.68H846L942.82 0Z" fill="#FF5500"/>
<path d="M1258.82 1H1617.5L1520.68 359.68H1162L1258.82 1Z" fill="#FF5500"/>
<path d="M584.82 0H943.5L846.68 358.68H488L584.82 0Z" fill="#FF5500"/>
<path d="M196.882 110.909C214.548 45.4638 273.911 0 341.699 0H585.5L488.68 358.68H130L196.882 110.909Z" fill="#FF5500"/>
<path d="M716.681 840H1075.36L978.54 1198.68H619.86L716.681 840Z" fill="#FF5500"/>
<path d="M1064.82 840H1423.5L1326.68 1198.68H968L1064.82 840Z" fill="#FF5500"/>
<path d="M358.681 840H717.36L620.54 1198.68H261.86L358.681 840Z" fill="#FF5500"/>
<path d="M262.82 1195H621.5L524.68 1553.68H166L262.82 1195Z" fill="#FF5500"/>
<path d="M204.82 1410H563.5L466.68 1768.68H108L204.82 1410Z" fill="#FF5500"/>
<path d="M131.82 1676H490.5L393.68 2034.68H35L131.82 1676Z" fill="#FF5500"/>
<path d="M177.82 180H536.5L439.68 538.68H81L177.82 180Z" fill="#FF5500"/>
<path d="M96.8202 481H455.5L358.68 839.68H0L96.8202 481Z" fill="#FF5500"/>
</svg>
