<svg width="1960" height="1797" viewBox="0 0 1960 1797" fill="none" xmlns="http://www.w3.org/2000/svg">
<path d="M1600.82 1H1959.5L1892.62 248.771C1874.95 314.216 1815.59 359.68 1747.8 359.68H1504L1600.82 1Z" fill="#FF5500"/>
<path d="M942.82 0H1301.5L1204.68 358.68H846L942.82 0Z" fill="#FF5500"/>
<path d="M1258.82 1H1617.5L1520.68 359.68H1162L1258.82 1Z" fill="#FF5500"/>
<path d="M584.82 0H943.5L846.68 358.68H488L584.82 0Z" fill="#FF5500"/>
<path d="M196.882 110.909C214.548 45.4638 273.911 0 341.699 0H585.5L488.68 358.68H130L196.882 110.909Z" fill="#FF5500"/>
<path d="M1025.68 602H1384.36L1287.54 960.68H928.86L1025.68 602Z" fill="#FF5500"/>
<path d="M667.681 602H1026.36L929.54 960.68H570.86L667.681 602Z" fill="#FF5500"/>
<path d="M571.82 957H930.5L833.68 1315.68H475L571.82 957Z" fill="#FF5500"/>
<path d="M513.82 1172H872.5L775.68 1530.68H417L513.82 1172Z" fill="#FF5500"/>
<path d="M440.82 1438H799.5L702.68 1796.68H344L440.82 1438Z" fill="#FF5500"/>
<path d="M177.82 180H536.5L439.68 538.68H81L177.82 180Z" fill="#FF5500"/>
<path d="M96.8202 481H455.5L358.68 839.68H0L96.8202 481Z" fill="#FF5500"/>
</svg>
