<svg width="1449" height="1467" viewBox="0 0 1449 1467" fill="none" xmlns="http://www.w3.org/2000/svg">
<path d="M1089.82 0H1448.5L1381.62 247.771C1363.95 313.216 1304.59 358.68 1236.8 358.68H993L1089.82 0Z" fill="#FF5500"/>
<path d="M861.82 0H1220.5L1123.68 358.68H765L861.82 0Z" fill="#FF5500"/>
<path d="M503.82 0H862.5L765.68 358.68H407L503.82 0Z" fill="#FF5500"/>
<path d="M115.882 110.909C133.548 45.4638 192.911 0 260.699 0H504.5L407.68 358.68H49L115.882 110.909Z" fill="#FF5500"/>
<path d="M716.681 538H1075.36L978.54 896.68H619.86L716.681 538Z" fill="#FF5500"/>
<path d="M358.681 538H717.36L620.54 896.68H261.86L358.681 538Z" fill="#FF5500"/>
<path d="M262.82 893H621.5L524.68 1251.68H166L262.82 893Z" fill="#FF5500"/>
<path d="M204.82 1108H563.5L466.68 1466.68H108L204.82 1108Z" fill="#FF5500"/>
<path d="M96.8202 180H455.5L358.68 538.68H0L96.8202 180Z" fill="#FF5500"/>
</svg>
