<svg width="694" height="671" viewBox="0 0 694 671" fill="none" xmlns="http://www.w3.org/2000/svg">
<path d="M490.133 0H693.066L660.933 117.5H458L490.133 0Z" fill="#FF5500"/>
<path d="M286.133 304H489.066L456.933 421.5H254L286.133 304Z" fill="#FF5500"/>
<path d="M297.133 0H500.066L467.933 117.5H265L297.133 0Z" fill="#FF5500"/>
<path d="M141.133 304H344.066L311.933 421.5H109L141.133 304Z" fill="#FF5500"/>
<path d="M110.133 418L244.633 418L212.5 535.5H78L110.133 418Z" fill="#FF5500"/>
<path d="M89.1329 494L223.633 494L191.5 611.5H57L89.1329 494Z" fill="#FF5500"/>
<path d="M72.94 553L206.633 553L174.693 670.5H41L72.94 553Z" fill="#FF5500"/>
<path d="M104.133 0H307.066L274.933 117.5H72L104.133 0Z" fill="#FF5500"/>
<path d="M32.1329 0H235.066L202.933 117.5H0L32.1329 0Z" fill="#FF5500"/>
</svg>
