<svg xmlns="http://www.w3.org/2000/svg" width="91" height="42" fill="none" viewBox="0 0 91 42"><path fill="#1A1523" d="M2.322 30V11.09h12.114v2.872H5.748v5.134h7.857v2.871H5.748V30H2.322Zm23.237-5.965v-8.217h3.342V30h-3.24v-2.52h-.148a4.265 4.265 0 0 1-1.579 1.948c-.726.504-1.622.757-2.687.757-.93 0-1.75-.206-2.465-.619-.708-.418-1.262-1.025-1.662-1.819-.4-.8-.6-1.766-.6-2.899v-9.03h3.342v8.513c0 .899.247 1.613.739 2.142.492.53 1.139.794 1.939.794.492 0 .97-.12 1.431-.36a2.91 2.91 0 0 0 1.136-1.071c.301-.48.452-1.08.452-1.8Zm10.122-12.944V30h-3.343V11.09h3.343Zm6.779 0V30h-3.342V11.09h3.342Zm8.7 19.158c-1.114 0-2.111-.286-2.992-.858-.88-.573-1.575-1.404-2.086-2.493-.511-1.09-.767-2.413-.767-3.97 0-1.576.259-2.906.776-3.99.523-1.089 1.228-1.91 2.114-2.464.887-.56 1.875-.84 2.964-.84.831 0 1.514.141 2.05.424.535.277.96.613 1.274 1.007.314.387.557.754.73 1.098h.138v-7.072h3.351V30h-3.287v-2.234h-.203a5.703 5.703 0 0 1-.748 1.098c-.326.382-.757.708-1.292.979-.536.27-1.21.406-2.022.406Zm.932-2.742c.708 0 1.311-.19 1.81-.572.499-.388.877-.927 1.136-1.616.258-.69.387-1.493.387-2.41s-.129-1.714-.387-2.391c-.253-.677-.628-1.204-1.127-1.58-.492-.375-1.099-.562-1.819-.562-.745 0-1.366.194-1.865.581-.498.388-.874.924-1.126 1.607-.252.683-.379 1.465-.379 2.345 0 .887.127 1.677.379 2.373.258.69.637 1.234 1.136 1.634.504.394 1.123.591 1.855.591Zm16.46 2.77c-1.422 0-2.65-.296-3.684-.886a6.002 6.002 0 0 1-2.372-2.53c-.554-1.096-.831-2.385-.831-3.869 0-1.459.277-2.739.83-3.84.56-1.109 1.342-1.97 2.346-2.586 1.003-.622 2.182-.932 3.536-.932a7.16 7.16 0 0 1 2.474.424 5.593 5.593 0 0 1 2.069 1.293c.603.585 1.077 1.33 1.421 2.234.345.899.518 1.97.518 3.213v1.025H63.234V21.57h8.42c-.005-.64-.144-1.21-.415-1.708a3.021 3.021 0 0 0-1.136-1.19c-.48-.29-1.04-.435-1.68-.435-.683 0-1.283.166-1.8.499-.517.326-.92.757-1.21 1.292a3.72 3.72 0 0 0-.434 1.745v1.967c0 .825.151 1.533.453 2.124a3.228 3.228 0 0 0 1.265 1.348c.541.307 1.175.461 1.901.461a4.02 4.02 0 0 0 1.32-.203 2.93 2.93 0 0 0 1.026-.618c.289-.271.507-.607.655-1.007l3.121.351a4.865 4.865 0 0 1-1.126 2.16c-.548.61-1.25 1.084-2.105 1.422-.856.333-1.835.499-2.937.499Zm21.395-14.459L84.897 30h-3.693l-5.05-14.182h3.563l3.26 10.535h.147l3.269-10.535h3.554Z"/></svg>