<svg width="1610" height="1666" viewBox="0 0 1610 1666" fill="none" xmlns="http://www.w3.org/2000/svg">
<path d="M1250.82 1H1609.5L1542.62 248.771C1524.95 314.216 1465.59 359.68 1397.8 359.68H1154L1250.82 1Z" fill="#FF5500"/>
<path d="M592.82 0H951.5L854.68 358.68H496L592.82 0Z" fill="#FF5500"/>
<path d="M908.82 1H1267.5L1170.68 359.68H812L908.82 1Z" fill="#FF5500"/>
<path d="M234.82 0H593.5L496.68 358.68H138L234.82 0Z" fill="#FF5500"/>
<path d="M66.882 110.909C84.5479 45.4638 143.911 0 211.699 0H455.5L358.68 358.68H0L66.882 110.909Z" fill="#FF5500"/>
<path d="M336.681 737H695.36L598.54 1095.68H239.86L336.681 737Z" fill="#FF5500"/>
<path d="M336.681 737H695.36L598.54 1095.68H239.86L336.681 737Z" fill="#FF5500"/>
<path d="M693.82 737H1052.5L955.68 1095.68H597L693.82 737Z" fill="#FF5500"/>
<path d="M1037.82 737H1396.5L1299.68 1095.68H941L1037.82 737Z" fill="#FF5500"/>
<path d="M240.82 1092H599.5L502.68 1450.68H144L240.82 1092Z" fill="#FF5500"/>
<path d="M182.82 1307H541.5L444.68 1665.68H86L182.82 1307Z" fill="#FF5500"/>
</svg>
