<svg width="622" height="601" viewBox="0 0 622 601" fill="none" xmlns="http://www.w3.org/2000/svg">
<path d="M418.133 0H621.066L588.933 117.5H386L418.133 0Z" fill="#FF5500"/>
<path d="M275.133 234H478.066L445.933 351.5H243L275.133 234Z" fill="#FF5500"/>
<path d="M225.133 0H428.066L395.933 117.5H193L225.133 0Z" fill="#FF5500"/>
<path d="M130.133 234H333.066L300.933 351.5H98L130.133 234Z" fill="#FF5500"/>
<path d="M99.1329 348L233.633 348L201.5 465.5H67L99.1329 348Z" fill="#FF5500"/>
<path d="M78.1329 424L212.633 424L180.5 541.5H46L78.1329 424Z" fill="#FF5500"/>
<path d="M61.94 483L195.633 483L163.693 600.5H30L61.94 483Z" fill="#FF5500"/>
<path d="M32.1329 0H235.066L202.933 117.5H0L32.1329 0Z" fill="#FF5500"/>
</svg>
