<svg width="758" height="758" viewBox="0 0 758 758" fill="none" xmlns="http://www.w3.org/2000/svg">
<g clip-path="url(#clip0_45_5)">
<rect width="758" height="758" fill="#FF5500"/>
<rect x="-133" y="-133" width="1024" height="1024" fill="url(#paint0_radial_45_5)"/>
<path d="M269.363 565C264.945 565 261.363 561.419 261.363 557V200.637C261.363 196.218 264.945 192.637 269.363 192.637H499.909C504.327 192.637 507.909 196.218 507.909 200.637V249.546C507.909 253.964 504.327 257.546 499.909 257.546H348.091C343.672 257.546 340.091 261.128 340.091 265.546V338.273C340.091 342.691 343.672 346.273 348.091 346.273H483.545C487.963 346.273 491.545 349.855 491.545 354.273V403.182C491.545 407.6 487.963 411.182 483.545 411.182H348.091C343.672 411.182 340.091 414.764 340.091 419.182V557C340.091 561.419 336.509 565 332.091 565H269.363Z" fill="#EEEEEC"/>
</g>
<defs>
<radialGradient id="paint0_radial_45_5" cx="0" cy="0" r="1" gradientUnits="userSpaceOnUse" gradientTransform="translate(379 379) rotate(45) scale(724.077)">
<stop stop-color="#111110" stop-opacity="0.2"/>
<stop offset="0.9" stop-color="#111110" stop-opacity="0"/>
</radialGradient>
<clipPath id="clip0_45_5">
<rect width="758" height="758" fill="white"/>
</clipPath>
</defs>
</svg>
