<?xml version="1.0" standalone="no"?>
<!DOCTYPE svg PUBLIC "-//W3C//DTD SVG 20010904//EN"
 "http://www.w3.org/TR/2001/REC-SVG-20010904/DTD/svg10.dtd">
<svg version="1.0" xmlns="http://www.w3.org/2000/svg"
 width="525.000000pt" height="525.000000pt" viewBox="0 0 525.000000 525.000000"
 preserveAspectRatio="xMidYMid meet">
<metadata>
Created by potrace 1.14, written by Peter Selinger 2001-2017
</metadata>
<g transform="translate(0.000000,525.000000) scale(0.100000,-0.100000)"
fill="#000000" stroke="none">
<path d="M81 5237 c-19 -7 -44 -25 -55 -40 l-21 -28 0 -2543 c0 -2445 1 -2543
18 -2570 40 -60 -141 -56 2599 -55 1920 0 2521 3 2547 12 19 7 44 25 55 40
l21 28 0 2543 c0 2445 -1 2543 -18 2570 -40 60 141 56 -2599 55 -1920 0 -2521
-3 -2547 -12z"/>
</g>
</svg>
