<svg
  xmlns="http://www.w3.org/2000/svg"
  viewBox="0 0 1600 1000"
  fill="none"
>
  <rect width="1600" height="1000" fill="#F8F8F8" />
  <g stroke="#E4E4E7" stroke-width="1">
    <path d="M0 200H1600" />
    <path d="M0 500H1600" />
    <path d="M0 800H1600" />
    <path d="M320 0V1000" />
    <path d="M800 0V1000" />
    <path d="M1280 0V1000" />
  </g>
  <rect x="160" y="160" width="1280" height="680" rx="40" fill="#FCFCFC" stroke="#E4E4E7" />
  <rect x="256" y="272" width="448" height="24" rx="12" fill="#D4D4D8" />
  <rect x="256" y="336" width="736" height="18" rx="9" fill="#E4E4E7" />
  <rect x="256" y="384" width="640" height="18" rx="9" fill="#E4E4E7" />
  <rect x="256" y="520" width="320" height="192" rx="28" fill="#F1F1F2" stroke="#E4E4E7" />
  <rect x="608" y="520" width="320" height="192" rx="28" fill="#F1F1F2" stroke="#E4E4E7" />
  <rect x="960" y="520" width="384" height="96" rx="28" fill="#F1F1F2" stroke="#E4E4E7" />
  <rect x="960" y="648" width="384" height="64" rx="24" fill="#F1F1F2" stroke="#E4E4E7" />
</svg>
