<svg width="149" height="149" viewBox="0 0 149 149" fill="none" xmlns="http://www.w3.org/2000/svg">
<rect width="149" height="149" rx="16" fill="#FF4D0C"/>
<path d="M49.8291 60.5802C61.5667 50.5975 79.3926 42.5485 101.389 37.295L104 36.6777V15C68.7872 23.4101 45 39.4267 45 57.8078C45 59.9628 45.3235 62.0828 45.9589 64.1562C47.1604 62.9215 48.4658 61.7334 49.8291 60.5802Z" fill="white"/>
<path d="M65.0556 85.4378C68.5214 87.5928 72.3801 89.6313 76.5968 91.5183C84.5798 95.106 93.8105 98.1812 104 100.604V94.4886C96.1672 92.8113 89.0623 90.7845 82.87 88.4897C77.8214 86.626 73.3736 84.5642 69.6536 82.3627C77.937 77.447 89.767 73.2769 104 70.225V48.4076C83.8751 53.2067 67.4817 60.4986 57.1304 69.3048C55.1433 70.9822 53.3873 72.7178 51.8739 74.5116C47.4145 79.7185 45 85.3447 45 91.2038C45 109.573 68.7872 125.602 104 134V127.896C75.4416 121.769 56.5528 111.134 56.5528 99.0548C56.5528 94.2207 59.5796 89.608 65.0556 85.4378Z" fill="white"/>
</svg>
