<svg width="32" height="32" viewBox="0 0 32 32" fill="none" xmlns="http://www.w3.org/2000/svg">
<rect width="32" height="32" rx="3" fill="#FF4D0C"/>
<g clip-path="url(#clip0_9075_60)">
<path d="M21 4.99873L21 9.27046C21 9.27046 20.9976 9.27046 20.9969 9.27128L20.7654 9.29586C17.6956 9.62603 14.8438 10.4977 12.5162 11.8168C11.141 12.5959 9.98157 13.5135 9.07006 14.5352C9.02361 14.25 9 13.9608 9 13.6684C9 12.9326 9.14877 12.2174 9.43372 11.5341C10.8057 8.19474 15.3373 5.60827 21 4.99873Z" fill="white"/>
<path d="M21 11.6607L21 15.9325C18.33 16.3012 16.0473 17.1671 14.536 18.3281C14.0527 18.6992 13.6481 19.0998 13.3348 19.5242C13.2632 19.6201 13.197 19.7159 13.1357 19.8142C12.7688 20.3943 12.5721 21.0137 12.5721 21.6584C12.5721 21.7174 12.5721 21.7805 12.5799 21.8403C12.7326 24.5038 16.2567 26.7257 21 27.3844L21 29C14.177 28.2635 9 24.6611 9 20.3304C9 19.5938 9.14877 18.8794 9.43372 18.1961C9.60216 17.7857 9.81863 17.3875 10.0792 17.0016C10.6931 16.0922 11.5527 15.2582 12.6075 14.5299C14.7414 13.0576 17.6759 12.0188 21 11.6607Z" fill="white"/>
<path d="M12.6084 14.5305C12.5848 14.6845 12.573 14.8402 12.573 14.9983C12.573 15.0581 12.573 15.1212 12.5808 15.181C12.6477 16.346 13.3601 17.4258 14.5369 18.3286C15.1792 18.821 15.96 19.2602 16.8503 19.6305C18.057 20.1335 19.4652 20.5112 21.0009 20.7242L21.0009 22.3398C18.8772 22.1104 16.9125 21.6041 15.2138 20.884C14.4668 20.5669 13.7718 20.2089 13.1366 19.8148C11.8401 19.0111 10.7956 18.0583 10.0801 17.0022C10.694 16.0928 11.5536 15.2588 12.6084 14.5305Z" fill="white"/>
</g>
<defs>
<clipPath id="clip0_9075_60">
<rect width="24" height="12" fill="white" transform="translate(9 29) rotate(-90)"/>
</clipPath>
</defs>
</svg>
