<svg width="1000" height="1000" viewBox="0 0 1000 1000" fill="none" xmlns="http://www.w3.org/2000/svg">
<rect width="1000" height="1000" rx="50" fill="#005EFF"/>
<g clip-path="url(#clip0_9093_117)">
<path d="M658 180L658 299.964C658 299.964 657.931 299.964 657.908 299.987L651.158 300.677C561.621 309.95 478.443 334.43 410.555 371.473C370.447 393.354 336.629 419.123 310.043 447.814C308.689 439.808 308 431.686 308 423.472C308 402.811 312.339 382.724 320.65 363.536C360.666 269.755 492.838 197.118 658 180Z" fill="white"/>
<path d="M658 367.056L658 487.02C580.125 497.374 513.546 521.694 469.466 554.296C455.37 564.719 443.569 575.97 434.432 587.888C432.342 590.58 430.414 593.272 428.623 596.033C417.925 612.323 412.185 629.717 412.185 647.824C412.185 649.481 412.185 651.252 412.415 652.932C416.868 727.731 519.653 790.129 658 808.628L658 854C458.997 833.316 308 732.149 308 610.528C308 589.844 312.339 569.781 320.65 550.592C325.563 539.065 331.877 527.883 339.476 517.046C357.383 491.507 382.454 468.085 413.218 447.631C475.458 406.285 561.047 377.111 658 367.056Z" fill="white"/>
<path d="M413.218 447.63C412.529 451.956 412.185 456.327 412.185 460.768C412.185 462.448 412.185 464.219 412.414 465.899C414.366 498.616 435.143 528.941 469.466 554.296C488.2 568.124 510.975 580.456 536.941 590.856C572.136 604.983 613.208 615.59 658 621.572L658 666.944C596.058 660.502 538.754 646.283 489.21 626.058C467.423 617.154 447.15 607.1 428.623 596.033C390.811 573.462 360.345 546.703 339.476 517.046C357.383 491.507 382.454 468.085 413.218 447.63Z" fill="white"/>
</g>
<defs>
<clipPath id="clip0_9093_117">
<rect width="674" height="350" fill="white" transform="translate(308 854) rotate(-90)"/>
</clipPath>
</defs>
</svg>
