<svg width="417" height="724" viewBox="0 0 417 724" fill="none" xmlns="http://www.w3.org/2000/svg">
<path d="M416.997 12.01V115.166C416.997 121.32 412.116 126.271 405.84 126.94C224.117 144.868 76.7032 209.892 6.13393 297.929C-31.3821 137.643 156.059 30.4736 402.911 0.102227C410.303 -0.834336 416.997 4.78504 416.997 12.01Z" fill="white"/>
<path d="M406.261 336.832C304.87 350.211 220.494 381.653 171.263 422.46C181.583 431.023 193.438 439.185 206.687 446.811C256.615 475.577 326.069 497.519 406.261 508.089C412.398 508.892 417 513.842 417 519.863V544.347C417 551.439 410.585 557.058 403.193 556.255C313.935 546.622 233.185 524.947 167.916 494.174C154.806 488.154 142.394 481.598 130.539 474.908C126.216 485.076 124.124 495.646 124.124 506.35C124.124 586.493 243.087 654.059 406.261 675.734C412.398 676.537 417 681.487 417 687.508V711.992C417 719.083 410.445 724.703 403.193 723.9C172.936 699.148 0 593.316 0 466.747C0 340.177 172.936 234.345 403.193 209.459C410.585 208.657 417 214.276 417 221.367V325.058C417 331.079 412.398 336.029 406.261 336.832Z" fill="white"/>
</svg>
