<svg width="52" height="103" viewBox="0 0 52 103" fill="none" xmlns="http://www.w3.org/2000/svg">
<path d="M4.18 39.13C14.34 30.56 29.77 23.65 48.81 19.14L51.07 18.61V0C20.59 7.22 0 20.97 0 36.75C0 38.6 0.28 40.42 0.83 42.2C1.87 41.14 3 40.12 4.18 39.13Z" fill="#18181B"/>
<path d="M17.36 60.47C20.36 62.32 23.7 64.07 27.35 65.69C34.26 68.77 42.25 71.41 51.07 73.49V68.24C44.29 66.8 38.14 65.06 32.78 63.09C28.41 61.49 24.56 59.72 21.34 57.83C28.51 53.61 38.75 50.03 51.07 47.41V28.68C33.65 32.8 19.46 39.06 10.5 46.62C8.78 48.06 7.26 49.55 5.95 51.09C2.09 55.56 0 60.39 0 65.42C0 81.19 20.59 94.95 51.07 102.16V96.92C26.35 91.66 10 82.53 10 72.16C10 68.01 12.62 64.05 17.36 60.47Z" fill="#18181B"/>
</svg>
