<svg width="12" height="24" viewBox="0 0 12 24" fill="none" xmlns="http://www.w3.org/2000/svg">
<g clip-path="url(#clip0_9075_28)">
<path d="M12 -0.00126975L12 4.27046C12 4.27046 11.9976 4.27046 11.9969 4.27128L11.7654 4.29586C8.69557 4.62603 5.84375 5.49774 3.51617 6.81678C2.14103 7.59592 0.981569 8.51351 0.0700568 9.53516C0.0236153 9.25005 1.02397e-06 8.96084 1.01118e-06 8.66836C9.79025e-07 7.93264 0.148771 7.21741 0.433717 6.53413C1.80571 3.19474 6.33729 0.608275 12 -0.00126975Z" fill="white"/>
<path d="M12 6.66075L12 10.9325C9.33001 11.3012 7.0473 12.1671 5.53598 13.3281C5.05267 13.6992 4.64808 14.0998 4.3348 14.5242C4.26317 14.6201 4.19705 14.7159 4.13565 14.8142C3.76884 15.3943 3.57206 16.0137 3.57206 16.6584C3.57206 16.7174 3.57206 16.7805 3.57993 16.8403C3.73263 19.5038 7.25668 21.7257 12 22.3844L12 24C5.17704 23.2635 8.59413e-07 19.6611 6.70112e-07 15.3304C6.37917e-07 14.5938 0.148771 13.8794 0.433717 13.1961C0.602165 12.7857 0.81863 12.3875 1.07917 12.0016C1.69315 11.0922 2.55271 10.2582 3.60748 9.52987C5.74142 8.05762 8.67589 7.01877 12 6.66075Z" fill="white"/>
<path d="M3.60838 9.53046C3.58477 9.68449 3.57296 9.84015 3.57296 9.99827C3.57296 10.0581 3.57296 10.1212 3.58083 10.181C3.64774 11.346 4.36011 12.4258 5.53689 13.3286C6.17919 13.821 6.96004 14.2602 7.8503 14.6305C9.05699 15.1335 10.4652 15.5112 12.0009 15.7242L12.0009 17.3398C9.87719 17.1104 7.91248 16.6041 6.21383 15.884C5.46683 15.5669 4.77178 15.2089 4.13656 14.8148C2.84013 14.0111 1.79559 13.0583 1.08008 12.0022C1.69405 11.0928 2.55361 10.2588 3.60838 9.53046Z" fill="white"/>
</g>
<defs>
<clipPath id="clip0_9075_28">
<rect width="24" height="12" fill="white" transform="translate(1.04907e-06 24) rotate(-90)"/>
</clipPath>
</defs>
</svg>
